<svg xmlns="http://www.w3.org/2000/svg" viewBox="0 0 1300 905" font-family="Arial, sans-serif">
  <defs>
    <marker id="ah" viewBox="0 0 10 10" refX="9" refY="5" markerWidth="7" markerHeight="7" orient="auto">
      <path d="M0 0L10 5L0 10z" fill="#334155"/>
    </marker>
    <marker id="ahb" viewBox="0 0 10 10" refX="9" refY="5" markerWidth="7" markerHeight="7" orient="auto">
      <path d="M0 0L10 5L0 10z" fill="#1d4ed8"/>
    </marker>
  </defs>

  <text x="30" y="28" font-size="18" font-weight="bold" fill="#0f172a">ASIO-CARD 直播声卡 · 简图（一页看懂）</text>

  <!-- ============ 面板 A：USB 与数字拓扑 ============ -->
  <rect x="30" y="50" width="610" height="400" rx="10" fill="#f8fafc" stroke="#cbd5e1"/>
  <rect x="30" y="50" width="610" height="34" rx="10" fill="#3b82f6"/>
  <text x="44" y="73" font-size="14" font-weight="bold" fill="#fff">① USB 与数字拓扑（一个口干四件事）</text>

  <rect x="50" y="110" width="110" height="60" rx="8" fill="#dbeafe" stroke="#334155"/>
  <text x="105" y="136" text-anchor="middle" font-size="13" font-weight="bold">电脑 PC</text>
  <text x="105" y="154" text-anchor="middle" font-size="10">ASIO·播放·直播</text>

  <rect x="200" y="110" width="110" height="60" rx="8" fill="#ffffff" stroke="#334155" stroke-width="2"/>
  <text x="255" y="136" text-anchor="middle" font-size="13" font-weight="bold">USB-C</text>
  <text x="255" y="154" text-anchor="middle" font-size="10">唯一接口</text>

  <rect x="370" y="100" width="130" height="100" rx="8" fill="#dbeafe" stroke="#334155"/>
  <text x="435" y="126" text-anchor="middle" font-size="14" font-weight="bold">CH334U</text>
  <text x="435" y="144" text-anchor="middle" font-size="11">4口 USB2.0 Hub</text>
  <text x="435" y="160" text-anchor="middle" font-size="10">12MHz 晶振</text>

  <line x1="160" y1="140" x2="200" y2="140" stroke="#334155" stroke-width="2.5" marker-end="url(#ah)"/>
  <line x1="310" y1="140" x2="370" y2="140" stroke="#334155" stroke-width="2.5" marker-end="url(#ah)"/>

  <line x1="500" y1="135" x2="535" y2="135" stroke="#334155" stroke-width="2.5" marker-end="url(#ah)"/>
  <line x1="500" y1="160" x2="535" y2="160" stroke="#334155" stroke-width="2.5" marker-end="url(#ah)"/>
  <line x1="500" y1="185" x2="535" y2="185" stroke="#334155" stroke-width="2.5" marker-end="url(#ah)"/>
  <line x1="500" y1="210" x2="535" y2="210" stroke="#334155" stroke-width="2.5" marker-end="url(#ah)"/>

  <rect x="535" y="113" width="100" height="44" rx="8" fill="#bfdbfe" stroke="#1d4ed8" stroke-width="2"/>
  <text x="585" y="131" text-anchor="middle" font-size="12" font-weight="bold">XU316</text>
  <text x="585" y="147" text-anchor="middle" font-size="10" fill="#1d4ed8">音频·480M</text>
  <rect x="535" y="163" width="100" height="44" rx="8" fill="#dbeafe" stroke="#334155"/>
  <text x="585" y="181" text-anchor="middle" font-size="12" font-weight="bold">ESP32-S3</text>
  <text x="585" y="197" text-anchor="middle" font-size="10">刷机·维护</text>
  <rect x="535" y="213" width="100" height="44" rx="8" fill="#dbeafe" stroke="#334155"/>
  <text x="585" y="231" text-anchor="middle" font-size="11" font-weight="bold">CH343P-A</text>
  <text x="585" y="247" text-anchor="middle" font-size="10">COM1→ESP32</text>
  <rect x="535" y="263" width="100" height="44" rx="8" fill="#dbeafe" stroke="#334155"/>
  <text x="585" y="281" text-anchor="middle" font-size="11" font-weight="bold">CH343P-B</text>
  <text x="585" y="297" text-anchor="middle" font-size="10">COM2→XU316调试</text>

  <text x="50" y="340" font-size="11" fill="#334155">· 音频走下游1（480M），Hub 只增加 &lt;1µs，不影响音质与延迟</text>
  <text x="50" y="362" font-size="11" fill="#334155">· 屏蔽壳直连 GND（预留 0Ω 位）；VBUS → 保护 → V5D，见③</text>
  <text x="50" y="384" font-size="11" fill="#334155">· 一根线 = 音频 + 刷机 + 两个独立调试 COM 口</text>
  <text x="50" y="420" font-size="10" fill="#64748b">CC1/CC2 各 5.1k 下拉（不加 ESD）；D± 用 PRTR5V0U2X 双通道 ESD</text>

  <!-- ============ 面板 B：音频信号流 ============ -->
  <rect x="660" y="50" width="610" height="400" rx="10" fill="#f8fafc" stroke="#cbd5e1"/>
  <rect x="660" y="50" width="610" height="34" rx="10" fill="#22c55e"/>
  <text x="674" y="73" font-size="14" font-weight="bold" fill="#fff">② 音频信号流（设备内混音 / 双回环）</text>

  <rect x="680" y="105" width="112" height="50" rx="8" fill="#dcfce7" stroke="#334155"/>
  <text x="736" y="127" text-anchor="middle" font-size="12" font-weight="bold">备用输入</text>
  <text x="736" y="143" text-anchor="middle" font-size="10">线路 / Hi-Z</text>
  <rect x="812" y="105" width="128" height="50" rx="8" fill="#dcfce7" stroke="#334155"/>
  <text x="876" y="127" text-anchor="middle" font-size="12" font-weight="bold">OPA1656</text>
  <text x="876" y="143" text-anchor="middle" font-size="10">缓冲+继电器切换</text>

  <rect x="680" y="190" width="112" height="50" rx="8" fill="#dcfce7" stroke="#334155"/>
  <text x="736" y="212" text-anchor="middle" font-size="12" font-weight="bold">XLR 话筒</text>
  <text x="736" y="228" text-anchor="middle" font-size="10">+48V 幻象</text>
  <rect x="812" y="190" width="120" height="50" rx="8" fill="#dcfce7" stroke="#334155"/>
  <text x="872" y="212" text-anchor="middle" font-size="12" font-weight="bold">PGA2500</text>
  <text x="872" y="228" text-anchor="middle" font-size="10">数字增益 0/10~65dB</text>

  <rect x="1060" y="90" width="150" height="160" rx="8" fill="#86efac" stroke="#166534" stroke-width="2"/>
  <text x="1135" y="130" text-anchor="middle" font-size="14" font-weight="bold">ES9822</text>
  <text x="1135" y="150" text-anchor="middle" font-size="11">2ch ADC</text>
  <text x="1135" y="168" text-anchor="middle" font-size="11" fill="#166534">123dB · 32bit</text>
  <text x="1135" y="206" text-anchor="middle" font-size="10">I2S →</text>

  <line x1="940" y1="130" x2="1060" y2="130" stroke="#334155" stroke-width="2.5" marker-end="url(#ah)"/>
  <line x1="932" y1="215" x2="1060" y2="215" stroke="#334155" stroke-width="2.5" marker-end="url(#ah)"/>

  <polyline points="1135,250 1135,272 728,272 728,290" fill="none" stroke="#166534" stroke-width="2" marker-end="url(#ah)"/>

  <rect x="680" y="290" width="96" height="48" rx="8" fill="#bfdbfe" stroke="#1d4ed8" stroke-width="2"/>
  <text x="728" y="312" text-anchor="middle" font-size="12" font-weight="bold">XU316</text>
  <text x="728" y="328" text-anchor="middle" font-size="10">I2S</text>
  <rect x="796" y="290" width="110" height="48" rx="8" fill="#dcfce7" stroke="#334155"/>
  <text x="851" y="312" text-anchor="middle" font-size="12" font-weight="bold">ES9039Q2M</text>
  <text x="851" y="328" text-anchor="middle" font-size="10">DAC · 100M晶振</text>
  <rect x="926" y="290" width="110" height="48" rx="8" fill="#dcfce7" stroke="#334155"/>
  <text x="981" y="312" text-anchor="middle" font-size="12" font-weight="bold">OPA1612</text>
  <text x="981" y="328" text-anchor="middle" font-size="10">滤波·差转单</text>
  <rect x="1056" y="290" width="96" height="48" rx="8" fill="#dcfce7" stroke="#334155"/>
  <text x="1104" y="312" text-anchor="middle" font-size="12" font-weight="bold">线路输出</text>
  <text x="1104" y="328" text-anchor="middle" font-size="10">TRS×2</text>

  <line x1="776" y1="314" x2="796" y2="314" stroke="#334155" stroke-width="2.5" marker-end="url(#ah)"/>
  <line x1="906" y1="314" x2="926" y2="314" stroke="#334155" stroke-width="2.5" marker-end="url(#ah)"/>
  <line x1="1036" y1="314" x2="1056" y2="314" stroke="#334155" stroke-width="2.5" marker-end="url(#ah)"/>

  <polyline points="981,338 981,370 976,370" fill="none" stroke="#334155" stroke-width="2" marker-end="url(#ah)"/>
  <rect x="920" y="370" width="112" height="40" rx="8" fill="#dcfce7" stroke="#334155"/>
  <text x="976" y="394" text-anchor="middle" font-size="11" font-weight="bold">音量旋钮</text>
  <rect x="1050" y="370" width="110" height="40" rx="8" fill="#dcfce7" stroke="#334155"/>
  <text x="1105" y="394" text-anchor="middle" font-size="11" font-weight="bold">TPA6120A2 耳放</text>
  <rect x="1180" y="370" width="86" height="40" rx="8" fill="#dcfce7" stroke="#334155"/>
  <text x="1223" y="394" text-anchor="middle" font-size="11" font-weight="bold">耳机</text>
  <line x1="1032" y1="390" x2="1050" y2="390" stroke="#334155" stroke-width="2.5" marker-end="url(#ah)"/>
  <line x1="1160" y1="390" x2="1180" y2="390" stroke="#334155" stroke-width="2.5" marker-end="url(#ah)"/>

  <rect x="680" y="424" width="586" height="22" rx="6" fill="#fff7ed" stroke="#f59e0b"/>
  <text x="692" y="439" font-size="10.5" fill="#9a3412">设备内混音：话筒+备用+电脑播放 → 监听(零延迟) / 直播回环(给OBS) / 干声回环(给DAW)｜限幅防爆音</text>

  <!-- ============ 面板 C：电源树 ============ -->
  <rect x="30" y="470" width="610" height="400" rx="10" fill="#f8fafc" stroke="#cbd5e1"/>
  <rect x="30" y="470" width="610" height="34" rx="10" fill="#eab308"/>
  <text x="44" y="493" font-size="14" font-weight="bold" fill="#fff">③ 电源树（5V 一路进、六路出）</text>

  <text x="60" y="525" font-size="10" fill="#64748b">USB 描述符 500mA · 实际典型 0.9A · 预留 DC 5V 备份口</text>

  <rect x="60" y="560" width="100" height="48" rx="8" fill="#fef9c3" stroke="#334155"/>
  <text x="110" y="588" text-anchor="middle" font-size="12" font-weight="bold">USB 5V</text>
  <rect x="185" y="560" width="120" height="48" rx="8" fill="#fef9c3" stroke="#334155"/>
  <text x="245" y="588" text-anchor="middle" font-size="12" font-weight="bold">保护</text>
  <rect x="330" y="560" width="72" height="48" rx="8" fill="#fde047" stroke="#a16207" stroke-width="2"/>
  <text x="366" y="588" text-anchor="middle" font-size="12" font-weight="bold">V5D</text>
  <line x1="160" y1="584" x2="185" y2="584" stroke="#334155" stroke-width="2.5" marker-end="url(#ah)"/>
  <line x1="305" y1="584" x2="330" y2="584" stroke="#334155" stroke-width="2.5" marker-end="url(#ah)"/>

  <line x1="402" y1="584" x2="402" y2="850" stroke="#a16207" stroke-width="2"/>

  <rect x="455" y="530" width="170" height="48" rx="8" fill="#fef9c3" stroke="#334155"/>
  <text x="540" y="550" text-anchor="middle" font-size="11.5" font-weight="bold">3.3V数字 · Buck3.6V→AP7361C</text>
  <text x="540" y="568" text-anchor="middle" font-size="10">主控IO / ESP32 / ES数字</text>
  <rect x="455" y="590" width="170" height="48" rx="8" fill="#fde047" stroke="#a16207" stroke-width="2"/>
  <text x="540" y="610" text-anchor="middle" font-size="11.5" font-weight="bold">3.3V 模拟 · GM1205</text>
  <text x="540" y="628" text-anchor="middle" font-size="10">ADC / DAC / 100M晶振（超低噪）</text>
  <rect x="455" y="650" width="170" height="48" rx="8" fill="#fef9c3" stroke="#334155"/>
  <text x="540" y="670" text-anchor="middle" font-size="11.5" font-weight="bold">±5V 模拟 · LM27762</text>
  <text x="540" y="688" text-anchor="middle" font-size="10">前置 / 运放 / 耳放</text>
  <rect x="455" y="710" width="170" height="48" rx="8" fill="#fef9c3" stroke="#334155"/>
  <text x="540" y="730" text-anchor="middle" font-size="11.5" font-weight="bold">0.9V 核 · SY8089</text>
  <text x="540" y="748" text-anchor="middle" font-size="10">XU316 核压</text>
  <rect x="455" y="770" width="170" height="48" rx="8" fill="#fef9c3" stroke="#334155"/>
  <text x="540" y="790" text-anchor="middle" font-size="11.5" font-weight="bold">1.8V · TPS7A20</text>
  <text x="540" y="808" text-anchor="middle" font-size="10">ES9822 DVDD（按手册）</text>
  <rect x="455" y="830" width="170" height="48" rx="8" fill="#fef9c3" stroke="#334155"/>
  <text x="540" y="850" text-anchor="middle" font-size="11.5" font-weight="bold">48V 幻象 · XL6019</text>
  <text x="540" y="868" text-anchor="middle" font-size="10">话筒 6.81k×2 馈电</text>

  <line x1="402" y1="554" x2="455" y2="554" stroke="#334155" stroke-width="2"/>
  <line x1="402" y1="614" x2="455" y2="614" stroke="#334155" stroke-width="2"/>
  <line x1="402" y1="674" x2="455" y2="674" stroke="#334155" stroke-width="2"/>
  <line x1="402" y1="734" x2="455" y2="734" stroke="#334155" stroke-width="2"/>
  <line x1="402" y1="794" x2="455" y2="794" stroke="#334155" stroke-width="2"/>
  <line x1="402" y1="854" x2="455" y2="854" stroke="#334155" stroke-width="2"/>

  <!-- ============ 面板 D：ESP32 控制 ============ -->
  <rect x="660" y="470" width="610" height="400" rx="10" fill="#f8fafc" stroke="#cbd5e1"/>
  <rect x="660" y="470" width="610" height="34" rx="10" fill="#a855f7"/>
  <text x="674" y="493" font-size="14" font-weight="bold" fill="#fff">④ ESP32-S3 智能管理</text>

  <rect x="700" y="530" width="120" height="40" rx="8" fill="#f3e8ff" stroke="#334155"/>
  <text x="760" y="554" text-anchor="middle" font-size="11.5" font-weight="bold">1.3寸屏幕</text>
  <rect x="700" y="610" width="120" height="40" rx="8" fill="#f3e8ff" stroke="#334155"/>
  <text x="760" y="634" text-anchor="middle" font-size="11.5" font-weight="bold">按键×4</text>
  <rect x="700" y="690" width="150" height="40" rx="8" fill="#f3e8ff" stroke="#334155"/>
  <text x="775" y="706" text-anchor="middle" font-size="11" font-weight="bold">I2C → ES9822/9039</text>
  <text x="775" y="721" text-anchor="middle" font-size="9.5">DAC音量 / ADC配置</text>
  <rect x="700" y="770" width="150" height="40" rx="8" fill="#f3e8ff" stroke="#334155"/>
  <text x="775" y="786" text-anchor="middle" font-size="11" font-weight="bold">SPI → PGA2500</text>
  <text x="775" y="801" text-anchor="middle" font-size="9.5">话筒增益 0/10~65dB</text>
  <rect x="700" y="830" width="300" height="36" rx="8" fill="#e9d5ff" stroke="#7e22ce" stroke-width="2"/>
  <text x="850" y="852" text-anchor="middle" font-size="11.5" font-weight="bold" fill="#581c87">UART ↔ XU316：混音矩阵 · VU电平 · 限幅</text>

  <rect x="1090" y="530" width="140" height="40" rx="8" fill="#f3e8ff" stroke="#334155"/>
  <text x="1160" y="554" text-anchor="middle" font-size="11.5" font-weight="bold">旋钮×2（音量/增益）</text>
  <rect x="1090" y="610" width="150" height="40" rx="8" fill="#f3e8ff" stroke="#334155"/>
  <text x="1165" y="634" text-anchor="middle" font-size="11.5" font-weight="bold">继电器×4（48V/切换/静音）</text>
  <rect x="1090" y="690" width="150" height="40" rx="8" fill="#f3e8ff" stroke="#334155"/>
  <text x="1165" y="714" text-anchor="middle" font-size="11.5" font-weight="bold">LED×4（状态/过载红闪）</text>

  <rect x="900" y="610" width="160" height="64" rx="10" fill="#d8b4fe" stroke="#6b21a8" stroke-width="2.5"/>
  <text x="980" y="638" text-anchor="middle" font-size="15" font-weight="bold" fill="#3b0764">ESP32-S3</text>
  <text x="980" y="658" text-anchor="middle" font-size="10.5" fill="#3b0764">智能管理核心</text>

  <line x1="850" y1="550" x2="850" y2="848" stroke="#6b21a8" stroke-width="1.6"/>
  <line x1="900" y1="630" x2="850" y2="630" stroke="#334155" stroke-width="2"/>
  <line x1="850" y1="550" x2="820" y2="550" stroke="#334155" stroke-width="2" marker-end="url(#ah)"/>
  <line x1="850" y1="630" x2="820" y2="630" stroke="#334155" stroke-width="2" marker-end="url(#ah)"/>
  <line x1="850" y1="710" x2="850" y2="710" stroke="#334155" stroke-width="2"/>
  <line x1="850" y1="790" x2="850" y2="790" stroke="#334155" stroke-width="2"/>
  <line x1="850" y1="848" x2="850" y2="848" stroke="#334155" stroke-width="2"/>

  <line x1="1090" y1="550" x2="1090" y2="710" stroke="#6b21a8" stroke-width="1.6"/>
  <line x1="1060" y1="630" x2="1090" y2="630" stroke="#334155" stroke-width="2"/>
  <line x1="1090" y1="550" x2="1090" y2="550" stroke="#334155" stroke-width="2"/>
  <line x1="1090" y1="630" x2="1090" y2="630" stroke="#334155" stroke-width="2"/>
  <line x1="1090" y1="710" x2="1090" y2="710" stroke="#334155" stroke-width="2"/>

  <!-- 底部条 -->
  <text x="30" y="895" font-size="11" fill="#64748b">ASIO-CARD 直播声卡 简图 v1 — 细节与取值见 docs/schematic/ 模块文档；五张详细原理图见 fig/；IC 引脚号核对以 datasheet 为准</text>
</svg>
